# xmcd
#
# Track frame offsets: 
#        150
#        19595
#        37190
#        59990
#        76240
#        96915
#        116107
#        133358
#        149908
#        170518
#
# Disc length: 2581 seconds
#
# Revision: 0
# Processed by: cddbd v1.5.2PL0 Copyright (c) Steve Scherf et al.
# Submitted via: ExactAudioCopy v1.0b3
#
DISCID=9e0a130a
DTITLE=Trinh Nam Son - Mot Chut An Tinh
DYEAR=1996
DGENRE=
TTITLE0=Mot chut an tinh
TTITLE1=Dong song
TTITLE2=Tinh giac mo doi
TTITLE3=Toi se ve
TTITLE4=Lam lo
TTITLE5=Nho
TTITLE6=Rang thi la
TTITLE7=Loi tu gia
TTITLE8=Uoc mo trong van tho
TTITLE9=Mot doi co don
EXTD=
EXTT0=
EXTT1=
EXTT2=
EXTT3=
EXTT4=
EXTT5=
EXTT6=
EXTT7=
EXTT8=
EXTT9=
PLAYORDER=
